<?xml version="1.0" standalone="no"?>
<!DOCTYPE svg PUBLIC "-//W3C//DTD SVG 20010904//EN"
 "http://www.w3.org/TR/2001/REC-SVG-20010904/DTD/svg10.dtd">
<svg version="1.0" xmlns="http://www.w3.org/2000/svg"
 width="200.000000pt" height="200.000000pt" viewBox="0 0 200.000000 200.000000"
 preserveAspectRatio="xMidYMid meet">

<g transform="translate(0.000000,200.000000) scale(0.100000,-0.100000)"
fill="#000000" stroke="none">
<path d="M515 1831 c-86 -49 -86 -43 -4 -190 l73 -130 33 25 c90 68 257 123
375 124 128 0 303 -56 396 -127 18 -14 35 -23 36 -22 2 2 35 60 75 128 81 140
82 128 -13 185 l-60 36 -430 0 -431 0 -50 -29z"/>
<path d="M239 1603 c-13 -16 -12 -17 4 -4 9 7 17 15 17 17 0 8 -8 3 -21 -13z"/>
<path d="M179 1563 c-8 -9 -9 -14 -2 -10 23 14 19 -19 -9 -63 l-28 -45 0 -443
c-1 -432 0 -445 20 -479 17 -29 18 -38 8 -52 -11 -14 -11 -14 3 -4 13 11 18 9
28 -11 l13 -24 67 37 c36 21 97 54 134 75 l68 38 -21 31 c-41 62 -93 179 -106
240 -19 89 -17 219 5 302 23 89 41 130 85 198 l35 56 -127 71 c-70 40 -134 73
-142 75 -8 1 -14 8 -12 14 3 16 -3 14 -19 -6z"/>
<path d="M980 1559 c0 -5 5 -7 10 -4 6 4 10 -7 10 -24 0 -17 5 -31 10 -31 6 0
8 11 6 25 -3 18 0 25 10 25 8 0 12 5 9 10 -8 13 -55 13 -55 -1z"/>
<path d="M1056 1555 c3 -7 1 -23 -6 -34 -9 -17 -8 -21 5 -21 8 0 15 7 15 16 0
8 5 12 10 9 6 -4 8 -11 5 -16 -4 -5 -2 -9 3 -9 6 0 15 14 21 30 8 24 7 30 -5
30 -7 0 -14 -4 -14 -10 0 -5 -5 -10 -11 -10 -5 0 -8 4 -5 9 3 5 -1 11 -9 14
-9 4 -12 1 -9 -8z"/>
<path d="M914 1530 c1 -16 6 -30 12 -30 6 0 9 13 6 30 -6 39 -19 39 -18 0z"/>
<path d="M1142 1524 l-23 -36 22 7 c13 5 19 3 15 -3 -3 -5 0 -12 7 -15 9 -3
12 8 12 39 0 24 -2 44 -5 44 -3 0 -15 -16 -28 -36z"/>
<path d="M834 1544 c-14 -6 4 -64 19 -64 5 0 7 7 3 15 -3 8 -1 15 3 15 5 0 11
-6 14 -12 8 -24 18 -1 11 26 -6 24 -27 39 -21 15 1 -6 -4 -14 -12 -17 -10 -3
-12 0 -8 12 4 9 5 16 4 15 -1 0 -7 -3 -13 -5z"/>
<path d="M166 1528 c3 -5 10 -6 15 -3 13 9 11 12 -6 12 -8 0 -12 -4 -9 -9z"/>
<path d="M1658 1477 c-65 -35 -120 -66 -124 -69 -3 -4 12 -37 34 -75 59 -99
84 -181 90 -295 7 -151 -20 -262 -99 -392 -23 -38 -37 -72 -32 -76 14 -13 244
-143 246 -139 16 25 57 90 70 111 15 24 17 74 17 457 l0 429 -32 56 c-18 31
-37 56 -43 56 -5 -1 -63 -29 -127 -63z"/>
<path d="M784 1515 c4 -12 0 -14 -20 -9 -26 7 -26 6 -10 -18 9 -13 13 -28 9
-31 -3 -4 -1 -7 6 -7 8 0 10 8 6 23 -6 18 -5 20 6 10 25 -25 38 -16 26 17 -6
17 -15 30 -20 30 -5 0 -7 -7 -3 -15z"/>
<path d="M1210 1508 c1 -7 7 -24 14 -36 l13 -24 16 26 c10 15 13 27 7 31 -6 3
-10 0 -10 -7 -1 -9 -5 -7 -14 5 -16 20 -26 22 -26 5z"/>
<path d="M1195 1481 c-3 -5 -1 -12 5 -16 5 -3 10 1 10 9 0 18 -6 21 -15 7z"/>
<path d="M1278 1459 l-17 -29 27 7 c24 6 25 4 14 -9 -7 -9 -9 -19 -4 -22 4 -3
16 8 25 24 11 18 14 31 7 35 -5 3 -10 1 -10 -4 0 -6 -5 -11 -11 -11 -6 0 -9 7
-6 15 11 28 -9 23 -25 -6z"/>
<path d="M687 1473 c-4 -6 0 -16 8 -23 19 -15 19 -30 2 -30 -8 0 -18 10 -24
22 -5 12 -12 17 -16 11 -3 -5 3 -20 15 -32 18 -20 22 -21 35 -8 13 13 13 18 0
42 -8 15 -17 23 -20 18z"/>
<path d="M607 1453 c-13 -12 -7 -48 12 -73 17 -21 21 -22 36 -10 15 13 15 15
1 25 -9 7 -22 24 -29 38 -8 15 -17 24 -20 20z"/>
<path d="M961 1412 c-15 -27 -14 -37 2 -24 6 5 23 12 36 14 29 4 46 -31 28
-55 -15 -20 -67 -11 -68 12 0 9 -5 1 -10 -18 -12 -40 -10 -43 35 -45 45 -1 51
-9 38 -45 -11 -30 -10 -30 19 -24 18 3 29 1 29 -5 0 -15 -63 -26 -105 -18 -34
7 -35 6 -35 -23 0 -23 4 -29 15 -25 8 4 15 10 15 15 0 5 7 9 16 9 14 0 14 -3
4 -15 -11 -13 -8 -15 14 -15 14 0 26 -4 26 -8 0 -15 -24 -32 -45 -32 -14 0
-26 -10 -33 -25 -12 -25 -13 -25 -43 -9 -41 21 -59 6 -35 -30 41 -63 216 9
216 89 0 16 7 36 15 45 24 26 2 89 -36 102 -25 9 -28 13 -22 36 8 32 9 89 2
97 -3 2 -19 8 -36 11 -25 5 -33 2 -42 -14z m89 -254 c0 -18 -2 -20 -9 -8 -6 8
-7 18 -5 22 9 14 14 9 14 -14z"/>
<path d="M1385 1409 c4 -5 -2 -18 -14 -28 -11 -10 -18 -21 -14 -24 3 -4 14 3
24 14 11 13 23 18 31 13 7 -4 4 2 -6 14 -20 23 -32 29 -21 11z"/>
<path d="M107 1393 c-4 -3 -7 -13 -7 -22 1 -13 3 -13 11 2 11 19 8 33 -4 20z"/>
<path d="M56 1312 c-35 -113 -47 -191 -48 -311 0 -120 12 -200 48 -313 25 -78
39 -103 29 -51 -4 22 -1 19 14 -12 11 -22 20 -34 20 -27 1 7 -6 26 -14 42 -25
49 -55 174 -64 268 -12 131 5 285 45 409 5 15 4 16 -5 3 -9 -13 -11 -13 -11 1
0 9 3 19 7 23 8 8 15 46 8 46 -2 0 -15 -35 -29 -78z m8 -36 c-3 -15 -8 -25
-11 -23 -2 3 -1 17 3 31 3 15 8 25 11 23 2 -3 1 -17 -3 -31z m-17 -68 c-3 -8
-6 -5 -6 6 -1 11 2 17 5 13 3 -3 4 -12 1 -19z m-10 -50 c-3 -7 -5 -2 -5 12 0
14 2 19 5 13 2 -7 2 -19 0 -25z m-10 -95 c-2 -16 -4 -5 -4 22 0 28 2 40 4 28
2 -13 2 -35 0 -50z m10 -245 c-3 -7 -5 -2 -5 12 0 14 2 19 5 13 2 -7 2 -19 0
-25z m42 -148 c0 -8 -7 1 -14 20 -18 46 -17 64 0 25 8 -16 14 -37 14 -45z"/>
<path d="M568 1373 c-7 -12 41 -53 48 -42 3 6 4 11 3 12 -2 1 -14 10 -26 20
-11 10 -23 15 -25 10z"/>
<path d="M1011 1364 c0 -11 3 -14 6 -6 3 7 2 16 -1 19 -3 4 -6 -2 -5 -13z"/>
<path d="M1411 1346 c-13 -13 -19 -26 -14 -29 12 -6 57 39 45 46 -5 4 -19 -4
-31 -17z"/>
<path d="M536 1334 c-3 -8 -1 -14 4 -14 6 0 10 -5 10 -11 0 -6 -6 -9 -14 -6
-26 10 -26 -5 0 -25 14 -11 28 -17 32 -14 3 4 0 11 -7 15 -7 5 -10 14 -6 20 5
9 10 9 20 1 9 -8 15 -8 20 0 3 5 1 10 -4 10 -6 0 -20 9 -30 19 -16 16 -20 17
-25 5z"/>
<path d="M1450 1330 c0 -6 -4 -9 -8 -6 -4 2 -13 -4 -20 -14 -17 -28 -1 -31 27
-5 15 15 19 25 12 29 -6 4 -11 2 -11 -4z"/>
<path d="M1480 1289 c0 -5 -11 -11 -25 -15 -14 -4 -23 -9 -20 -12 10 -10 75
-13 75 -2 0 5 7 10 16 10 8 0 13 4 10 9 -8 12 -56 20 -56 10z"/>
<path d="M485 1249 c-4 -11 -4 -23 -1 -26 3 -4 6 -1 6 6 0 10 6 9 24 -2 20
-14 25 -14 30 -2 3 9 -3 15 -17 17 -12 2 -21 9 -19 16 4 21 -16 13 -23 -9z"/>
<path d="M1242 1058 c-27 -7 -31 -12 -22 -23 6 -8 23 -11 40 -8 31 4 38 -4 20
-25 -7 -8 -7 -9 1 -3 6 5 18 7 25 4 10 -3 14 3 14 19 0 32 -34 48 -78 36z"/>
<path d="M1539 1053 c-1 -4 0 -18 0 -29 2 -18 -2 -21 -23 -17 -19 4 -26 1 -26
-11 0 -13 6 -15 26 -10 25 6 26 5 22 -20 -4 -20 -1 -26 12 -26 13 0 16 6 12
26 -4 23 -2 24 22 18 20 -5 26 -3 26 11 0 13 -6 16 -26 11 -23 -6 -25 -4 -22
20 2 16 -2 29 -9 31 -7 3 -13 1 -14 -4z"/>
<path d="M438 1024 c4 -25 3 -26 -22 -20 -19 5 -26 3 -26 -9 0 -10 9 -15 26
-15 21 0 25 -4 21 -20 -3 -13 0 -20 9 -20 8 0 14 9 14 20 0 15 7 20 25 20 16
0 25 6 25 15 0 11 -7 14 -25 9 -22 -5 -25 -3 -25 20 0 15 -6 26 -14 26 -9 0
-12 -8 -8 -26z"/>
<path d="M1225 1000 c-3 -5 -1 -10 4 -10 6 0 11 5 11 10 0 6 -2 10 -4 10 -3 0
-8 -4 -11 -10z"/>
<path d="M711 984 c0 -11 3 -14 6 -6 3 7 2 16 -1 19 -3 4 -6 -2 -5 -13z"/>
<path d="M761 984 c0 -11 3 -14 6 -6 3 7 2 16 -1 19 -3 4 -6 -2 -5 -13z"/>
<path d="M953 965 c-15 -20 -19 -34 -14 -58 7 -31 9 -32 56 -32 44 0 51 3 63
27 11 25 10 31 -9 58 -29 38 -67 40 -96 5z"/>
<path d="M1215 900 c-8 -16 -15 -34 -15 -40 0 -12 98 -11 106 1 5 9 -51 69
-65 69 -6 0 -17 -13 -26 -30z m35 10 c0 -5 -5 -10 -11 -10 -5 0 -7 5 -4 10 3
6 8 10 11 10 2 0 4 -4 4 -10z"/>
<path d="M1270 921 c0 -6 6 -11 14 -11 8 0 20 -13 28 -30 7 -16 16 -30 20 -30
5 0 8 -7 8 -16 0 -8 4 -13 10 -9 13 8 -43 99 -63 103 -9 2 -17 -1 -17 -7z"/>
<path d="M688 902 c-8 -9 -24 -34 -36 -54 -25 -44 -14 -60 36 -53 18 2 30 0
27 -6 -12 -18 34 -9 52 10 14 15 31 20 71 19 59 0 89 16 71 38 -6 8 -19 14
-28 14 -14 -1 -14 -2 2 -14 25 -19 5 -30 -38 -22 -21 4 -45 19 -62 40 -35 41
-74 53 -95 28z m62 -97 c-7 -9 -15 -13 -19 -10 -3 3 1 10 9 15 21 14 24 12 10
-5z"/>
<path d="M1086 857 c-16 -12 -16 -14 -3 -26 9 -7 28 -11 44 -8 27 4 27 4 -4 6
-36 1 -47 21 -12 21 11 0 17 5 14 10 -8 13 -18 13 -39 -3z"/>
<path d="M1237 803 c-13 -12 -7 -23 13 -23 11 0 20 7 20 15 0 15 -21 21 -33 8z"/>
<path d="M685 780 c3 -5 8 -10 11 -10 2 0 4 5 4 10 0 6 -5 10 -11 10 -5 0 -7
-4 -4 -10z"/>
<path d="M1063 753 c-10 -28 -24 -33 -75 -31 -39 1 -48 5 -48 20 0 18 -24 25
-34 10 -8 -14 25 -54 40 -48 8 3 13 0 11 -7 -1 -7 13 -13 35 -15 43 -4 98 30
98 59 0 25 -19 34 -27 12z"/>
<path d="M1402 731 c-11 -6 -10 -11 3 -25 33 -32 53 -38 65 -17 7 13 7 22 0
26 -5 3 -10 -2 -10 -12 0 -14 -3 -13 -13 6 -14 28 -26 34 -45 22z"/>
<path d="M542 721 c-21 -13 -10 -46 16 -49 17 -3 20 0 16 13 -5 12 -9 13 -20
4 -11 -9 -14 -9 -14 0 0 18 31 26 40 10 5 -7 12 -10 16 -6 9 8 -14 37 -30 37
-6 0 -17 -4 -24 -9z"/>
<path d="M1375 670 c-3 -5 -1 -10 4 -10 6 0 11 -5 11 -11 0 -6 -6 -9 -14 -6
-26 10 -26 -5 1 -26 l26 -21 19 24 c20 24 20 24 -1 34 -12 5 -21 13 -21 18 0
11 -17 10 -25 -2z m45 -40 c0 -5 -7 -10 -16 -10 -8 0 -12 5 -9 10 3 6 10 10
16 10 5 0 9 -4 9 -10z"/>
<path d="M582 650 c-12 -10 -18 -21 -13 -24 5 -3 14 1 21 9 7 8 19 15 27 15 8
0 11 5 8 10 -9 14 -17 12 -43 -10z"/>
<path d="M620 619 c-19 -11 -32 -20 -27 -20 4 -1 13 -2 20 -3 6 0 13 -7 13
-13 3 -28 6 -27 24 7 31 56 27 60 -30 29z"/>
<path d="M1329 615 c-1 -5 -1 -14 0 -18 1 -5 -3 -6 -8 -3 -5 4 -11 3 -13 -1
-6 -12 41 -53 47 -42 4 5 3 9 -2 10 -4 0 1 4 12 9 18 8 18 9 2 9 -10 1 -22 11
-27 24 -5 12 -10 18 -11 12z"/>
<path d="M110 564 c0 -8 5 -12 10 -9 6 4 8 11 5 16 -9 14 -15 11 -15 -7z"/>
<path d="M670 565 c-16 -19 -6 -45 18 -45 25 0 44 23 36 44 -8 20 -38 21 -54
1z m40 -9 c0 -16 -18 -31 -27 -22 -8 8 5 36 17 36 5 0 10 -6 10 -14z"/>
<path d="M1241 551 c-7 -5 -11 -19 -9 -32 2 -18 9 -24 28 -24 26 0 35 25 12
33 -8 2 -10 -2 -5 -14 4 -12 2 -15 -8 -12 -21 7 -23 36 -2 40 10 2 14 6 8 10
-6 4 -17 3 -24 -1z"/>
<path d="M775 520 c4 -13 1 -22 -9 -26 -9 -3 -16 -11 -16 -16 0 -6 7 -8 15 -4
8 3 15 1 15 -4 0 -6 5 -10 10 -10 6 0 10 9 10 20 0 11 5 20 10 20 6 0 10 5 10
11 0 6 -7 8 -16 5 -8 -3 -13 -2 -10 3 3 5 -1 12 -10 15 -12 4 -14 1 -9 -14z"/>
<path d="M135 521 c-3 -5 -1 -12 5 -16 5 -3 10 1 10 9 0 18 -6 21 -15 7z"/>
<path d="M1190 505 c15 -18 -1 -20 -18 -3 -6 6 -14 9 -17 6 -9 -8 13 -58 26
-58 8 0 8 4 -1 15 -15 18 1 20 18 3 6 -6 14 -9 17 -6 8 8 -16 58 -28 58 -5 0
-4 -7 3 -15z"/>
<path d="M832 475 c-2 -29 1 -35 17 -35 12 0 26 12 35 30 8 17 10 28 5 25 -5
-4 -9 -1 -9 4 0 6 -10 11 -23 11 -19 0 -23 -6 -25 -35z m41 -5 c-3 -11 -12
-20 -19 -20 -17 0 -17 5 -3 31 13 24 29 16 22 -11z"/>
<path d="M1084 483 c-17 -17 -6 -53 17 -53 21 0 34 17 34 45 1 24 -30 28 -51
8z m36 -24 c0 -24 -23 -21 -28 4 -2 10 3 17 12 17 10 0 16 -9 16 -21z"/>
<path d="M1047 483 c-4 -3 -7 -17 -7 -30 0 -12 -4 -23 -9 -23 -12 0 -23 29
-15 41 3 5 -1 9 -10 9 -23 0 -4 -54 21 -58 17 -3 21 3 25 32 4 39 4 39 -5 29z"/>
<path d="M512 353 c-83 -145 -83 -138 18 -192 l59 -32 418 3 418 3 60 39 c33
21 61 40 63 41 3 3 -124 243 -135 255 -2 2 -12 -1 -21 -8 -247 -171 -545 -170
-787 3 -20 14 -24 10 -93 -112z"/>
<path d="M938 450 c-4 -26 -1 -30 19 -30 13 0 23 4 23 10 0 5 -7 7 -16 3 -14
-5 -16 -2 -10 20 3 15 2 27 -3 27 -5 0 -11 -13 -13 -30z"/>
</g>
</svg>
